# xmcd CD database file
#
# Track frame offsets:
#	150
#	14845
#	27168
#	41033
#	53280
#	66501
#	79138
#	92774
#	104167
#	116066
#	125854
#	137179
#	148442
#	161294
#	172471
#	185699
#	198752
#	211004
#	222164
#	237254
#	249995
#
# Disc length: 3498 seconds
#
# Revision: 0
# Processed by: cddbd v1.5.2PL0 Copyright (c) Steve Scherf et al.
# Submitted via: CDex 1.70beta2
#
DISCID=440da815
DTITLE=Stan Getz - 's Wonderful
DYEAR=2018
DGENRE=Jazz
TTITLE0=The lady in red
TTITLE1=My old frame
TTITLE2=Wrap your troubles in dreams
TTITLE3=On the alamo
TTITLE4=Gone with the wind
TTITLE5=Yesterdays
TTITLE6=You go to my head
TTITLE7=Sweetie pie
TTITLE8=Hershey bar
TTITLE9=Tootsie roll
TTITLE10=Strike up the band
TTITLE11=Imagination
TTITLE12=For stompers only
TTITLE13=Out of nowhere
TTITLE14='s wonderful
TTITLE15=It might as well be spring
TTITLE16=The best thing for you
TTITLE17=I'm getting sentimental over you
TTITLE18=I only have eyes for you
TTITLE19=Prelude to a kiss
TTITLE20=Dear old Stockholm
EXTD=YEAR: 2018
EXTT0=
EXTT1=
EXTT2=
EXTT3=
EXTT4=
EXTT5=
EXTT6=
EXTT7=
EXTT8=
EXTT9=
EXTT10=
EXTT11=
EXTT12=
EXTT13=
EXTT14=
EXTT15=
EXTT16=
EXTT17=
EXTT18=
EXTT19=
EXTT20=
PLAYORDER=
